<svg width="27" height="27" viewBox="0 0 27 27" fill="none" xmlns="http://www.w3.org/2000/svg">
<path d="M5.625 24.75H21.375C22.6159 24.75 23.625 23.7409 23.625 22.5V10.125C23.625 9.82663 23.5065 9.54048 23.2955 9.3295C23.0845 9.11853 22.7984 9 22.5 9H19.125V7.875C19.125 4.77338 16.6016 2.25 13.5 2.25C10.3984 2.25 7.875 4.77338 7.875 7.875V9H4.5C4.20163 9 3.91548 9.11853 3.7045 9.3295C3.49353 9.54048 3.375 9.82663 3.375 10.125V22.5C3.375 23.7409 4.38412 24.75 5.625 24.75ZM10.125 7.875C10.125 6.01425 11.6392 4.5 13.5 4.5C15.3608 4.5 16.875 6.01425 16.875 7.875V9H10.125V7.875ZM5.625 11.25H7.875V13.5H10.125V11.25H16.875V13.5H19.125V11.25H21.375L21.3773 22.5H5.625V11.25Z" fill="#EF4657"/>
</svg>
