<svg width="18" height="22" viewBox="0 0 18 22" fill="none" xmlns="http://www.w3.org/2000/svg">
<g clip-path="url(#clip0_5_76)">
<path d="M14.0742 9.625C14.4414 9.73958 14.791 9.89509 15.123 10.0915C15.4551 10.2879 15.8027 10.5867 16.166 10.9877C16.5293 11.3888 16.8398 11.8614 17.0977 12.4057C17.3555 12.95 17.5703 13.6538 17.7422 14.5173C17.9141 15.3808 18 16.3486 18 17.4208C18 18.6812 17.6094 19.7595 16.8281 20.6557C16.0469 21.5519 15.1055 22 14.0039 22H3.99609C2.89453 22 1.95312 21.5519 1.17188 20.6557C0.390625 19.7595 0 18.6812 0 17.4208C0 16.3486 0.0859375 15.3808 0.257812 14.5173C0.429688 13.6538 0.644531 12.95 0.902344 12.4057C1.16016 11.8614 1.4707 11.3888 1.83398 10.9877C2.19727 10.5867 2.54492 10.2879 2.87695 10.0915C3.20898 9.89509 3.55859 9.73958 3.92578 9.625C3.30859 8.60193 3 7.48884 3 6.28571C3 5.43452 3.1582 4.62221 3.47461 3.84877C3.79102 3.07533 4.21875 2.40625 4.75781 1.84152C5.29688 1.27679 5.93555 0.828683 6.67383 0.49721C7.41211 0.165737 8.1875 0 9 0C9.8125 0 10.5879 0.165737 11.3262 0.49721C12.0645 0.828683 12.7031 1.27679 13.2422 1.84152C13.7812 2.40625 14.209 3.07533 14.5254 3.84877C14.8418 4.62221 15 5.43452 15 6.28571C15 7.48884 14.6914 8.60193 14.0742 9.625ZM9 1.57143C7.75781 1.57143 6.69727 2.03181 5.81836 2.95257C4.93945 3.87333 4.5 4.98438 4.5 6.28571C4.5 7.58705 4.93945 8.6981 5.81836 9.61886C6.69727 10.5396 7.75781 11 9 11C10.2422 11 11.3027 10.5396 12.1816 9.61886C13.0605 8.6981 13.5 7.58705 13.5 6.28571C13.5 4.98438 13.0605 3.87333 12.1816 2.95257C11.3027 2.03181 10.2422 1.57143 9 1.57143ZM14.0039 20.4286C14.6914 20.4286 15.2793 20.136 15.7676 19.5508C16.2559 18.9656 16.5 18.2556 16.5 17.4208C16.5 15.4647 16.1934 13.9219 15.5801 12.7924C14.9668 11.6629 14.0859 11.0696 12.9375 11.0123C11.8047 12.0517 10.4922 12.5714 9 12.5714C7.50781 12.5714 6.19531 12.0517 5.0625 11.0123C3.91406 11.0696 3.0332 11.6629 2.41992 12.7924C1.80664 13.9219 1.5 15.4647 1.5 17.4208C1.5 18.2556 1.74414 18.9656 2.23242 19.5508C2.7207 20.136 3.30859 20.4286 3.99609 20.4286H14.0039Z" fill="#EF4657"/>
</g>
<defs>
<clipPath id="clip0_5_76">
<rect width="18" height="22" fill="white"/>
</clipPath>
</defs>
</svg>
